<svg xmlns="http://www.w3.org/2000/svg" width="800" height="800" viewBox="0 0 48 48"><g id="SVGRepo_iconCarrier"><defs><style>.a{fill:none;stroke:#3083dc;stroke-linecap:round;stroke-linejoin:round}</style></defs><path d="M33.522 15.105H43.5M28.103 16.904l-3.077 4.224a3.973 3.973 0 1 0-2.739 6.858 4.44 4.44 0 0 0 3.179-.96c1.069-.838 5.918-7.49 8.056-11.92" class="a"/><path d="M43.5 15.105c-8.665 13.15-14.873 18.233-20.856 18.128s-9.564-4.123-9.564-9.227a9.202 9.202 0 0 1 14.942-7.23M9.3 23.067a12.115 12.115 0 0 1 3.726-8.017l-8.526.056M4.5 15.105 9.299 23.1" class="a"/></g></svg>